<?xml version="1.0" standalone="no"?>
<!DOCTYPE svg PUBLIC "-//W3C//DTD SVG 20010904//EN"
 "http://www.w3.org/TR/2001/REC-SVG-20010904/DTD/svg10.dtd">
<svg version="1.0" xmlns="http://www.w3.org/2000/svg"
 width="675.000000pt" height="450.000000pt" viewBox="0 0 675.000000 450.000000"
 preserveAspectRatio="xMidYMid meet">

<g transform="translate(0.000000,450.000000) scale(0.100000,-0.100000)"
fill="#000000" stroke="none">
<path d="M2713 3989 c11 -6 32 -9 48 -7 17 3 32 1 35 -4 3 -5 11 -5 17 1 7 5
28 11 47 14 19 2 -10 4 -65 5 -75 1 -95 -1 -82 -9z"/>
<path d="M3147 3988 c2 -5 40 -8 84 -8 51 0 78 -4 74 -10 -10 -15 11 -12 24 4
11 13 -2 15 -87 18 -55 2 -98 0 -95 -4z"/>
<path d="M3768 3973 c6 -2 18 -2 25 0 6 3 1 5 -13 5 -14 0 -19 -2 -12 -5z"/>
<path d="M3074 3945 c-10 -8 -14 -15 -8 -15 6 0 17 7 24 15 16 19 9 19 -16 0z"/>
<path d="M2537 3873 c-12 -6 -25 -9 -28 -7 -4 2 -13 -4 -20 -14 -11 -14 -11
-15 1 -5 8 7 19 9 29 4 9 -5 45 -9 80 -9 42 0 67 -5 72 -14 7 -10 9 -9 9 5 0
9 5 17 10 17 6 0 10 4 10 9 0 9 -7 11 -57 12 -13 0 -23 4 -23 9 0 12 -56 8
-83 -7z"/>
<path d="M3000 3881 c13 -10 13 -12 0 -21 -19 -12 -30 -13 -30 0 0 5 -9 2 -20
-7 -25 -21 -26 -33 -2 -27 9 3 55 1 101 -4 66 -6 84 -5 88 5 10 26 -19 45 -59
40 -20 -3 -38 -2 -40 3 -2 4 -14 10 -28 14 -19 6 -22 5 -10 -3z"/>
<path d="M3410 3818 c-12 -22 -12 -22 6 -6 10 10 15 20 12 24 -4 3 -12 -5 -18
-18z"/>
<path d="M3440 3825 c0 -12 15 -15 68 -17 37 -1 82 -2 100 -3 24 0 32 4 32 17
0 16 -11 18 -100 18 -82 0 -100 -3 -100 -15z"/>
<path d="M2120 3161 c0 -5 17 -12 37 -16 21 -4 41 -12 45 -18 5 -7 8 -2 8 13
0 23 -4 25 -45 27 -25 1 -45 -2 -45 -6z"/>
<path d="M2240 3151 c0 -10 59 -21 110 -21 l35 1 -25 14 c-27 16 -120 20 -120
6z"/>
<path d="M2082 3113 c-7 -12 -12 -30 -12 -40 0 -13 5 -9 15 11 9 16 14 34 12
40 -2 6 -9 1 -15 -11z"/>
<path d="M2184 3035 c-8 -31 -1 -40 23 -30 17 8 17 8 0 12 -12 3 -16 10 -12
24 4 10 4 19 1 19 -3 0 -8 -11 -12 -25z"/>
<path d="M2346 3045 c-28 -28 -16 -64 14 -44 13 7 12 9 -2 9 -23 0 -23 9 -1
26 10 7 15 15 12 19 -4 3 -14 -1 -23 -10z"/>
<path d="M2072 3015 c0 -16 2 -22 5 -12 2 9 2 23 0 30 -3 6 -5 -1 -5 -18z"/>
<path d="M2050 2890 c-5 -29 -6 -35 -12 -50 -11 -27 -18 -94 -8 -84 4 5 10 25
11 44 2 19 7 40 12 47 5 7 7 22 4 35 -2 13 -5 16 -7 8z"/>
<path d="M2012 2677 c-16 -33 -26 -121 -13 -112 6 3 11 19 11 34 0 15 5 42 11
60 13 38 7 51 -9 18z"/>
<path d="M4340 2259 c0 -28 2 -29 49 -29 28 0 53 5 56 10 3 6 -2 10 -12 10
-10 0 -35 9 -56 19 l-37 19 0 -29z"/>
<path d="M4156 2268 c3 -4 12 -8 20 -8 12 0 14 -7 9 -32 -4 -18 -11 -37 -15
-43 -4 -5 -10 -37 -11 -70 -2 -33 -9 -64 -15 -70 -12 -11 -44 -140 -44 -178 0
-14 4 -28 9 -32 15 -9 30 27 32 76 2 24 8 58 15 74 20 47 56 214 49 225 -3 5
-1 10 6 10 8 0 7 5 -2 17 -13 15 -12 15 8 5 12 -7 38 -12 57 -12 31 0 36 3 36
24 0 24 -2 24 -80 23 -43 0 -77 -4 -74 -9z"/>
<path d="M3264 2154 c-13 -30 -13 -38 -2 -45 27 -18 38 -9 38 30 0 54 -17 61
-36 15z"/>
<path d="M4285 2140 c-3 -5 -1 -10 4 -10 6 0 11 5 11 10 0 6 -2 10 -4 10 -3 0
-8 -4 -11 -10z"/>
<path d="M4400 2140 c0 -5 7 -7 15 -4 8 4 15 8 15 10 0 2 -7 4 -15 4 -8 0 -15
-4 -15 -10z"/>
<path d="M3861 2103 c-6 -21 -13 -71 -17 -111 l-7 -74 -123 7 c-122 7 -123 7
-117 -14 3 -11 12 -21 19 -21 8 0 14 -9 14 -20 0 -13 7 -20 20 -20 22 0 26 10
10 26 -7 7 13 9 58 7 111 -6 112 -7 112 -58 0 -24 5 -47 12 -51 7 -4 8 -3 4 5
-5 7 13 36 44 71 47 54 52 65 27 61 -4 -1 -17 4 -28 9 -14 8 -18 17 -14 33 4
15 3 18 -3 9 -19 -28 -20 43 -1 103 22 69 22 75 9 75 -5 0 -14 -17 -19 -37z"/>
<path d="M4390 2110 c0 -5 5 -10 11 -10 5 0 7 5 4 10 -3 6 -8 10 -11 10 -2 0
-4 -4 -4 -10z"/>
<path d="M4270 2100 c0 -5 5 -10 10 -10 6 0 10 5 10 10 0 6 -4 10 -10 10 -5 0
-10 -4 -10 -10z"/>
<path d="M3074 2066 c-9 -24 0 -69 15 -74 8 -3 11 0 8 5 -3 5 -7 26 -9 46 -2
40 -6 45 -14 23z"/>
<path d="M3301 2023 l-13 -28 26 24 c30 28 31 31 13 31 -8 0 -19 -12 -26 -27z"/>
<path d="M3130 2030 c0 -5 -7 -10 -16 -10 -26 0 7 -26 44 -35 38 -8 41 3 9 33
-25 24 -37 28 -37 12z"/>
<path d="M3027 1960 c-36 -39 -45 -64 -28 -74 13 -8 37 15 61 58 31 56 11 66
-33 16z"/>
<path d="M3546 1917 c10 -15 23 -27 28 -27 12 0 -18 43 -34 48 -8 3 -6 -5 6
-21z"/>
<path d="M3210 1915 c-7 -8 -26 -15 -42 -15 -17 0 -27 -4 -23 -10 3 -6 -1 -13
-10 -17 -10 -3 -21 0 -25 7 -10 16 -31 4 -24 -14 3 -8 -16 -31 -45 -56 -28
-23 -51 -38 -51 -34 0 5 -20 -12 -45 -36 -25 -25 -43 -50 -41 -57 3 -7 -1 -10
-10 -6 -7 3 -14 2 -14 -1 0 -4 12 -11 26 -17 22 -8 29 -6 41 11 18 26 33 26
33 -1 0 -15 5 -19 15 -15 8 3 15 1 15 -4 0 -6 5 -10 10 -10 6 0 10 9 10 20 0
11 5 20 10 20 6 0 10 -9 10 -21 0 -11 5 -17 10 -14 6 3 10 3 10 -2 0 -13 83
-9 87 5 3 7 -5 12 -22 12 -26 0 -26 0 15 40 24 23 47 37 55 33 22 -8 45 16 44
46 -2 24 -2 24 -6 3 -4 -19 -9 -22 -31 -18 -15 3 -43 7 -63 8 -31 2 -35 5 -31
25 4 22 22 33 22 13 0 -15 36 -12 49 4 9 11 9 19 -1 35 -11 18 -9 24 17 51 16
16 26 30 23 30 -3 0 -11 -7 -18 -15z m-83 -81 c-3 -3 -12 -4 -19 -1 -8 3 -5 6
6 6 11 1 17 -2 13 -5z"/>
<path d="M3440 1912 c0 -5 7 -17 16 -28 15 -18 15 -18 10 0 -6 17 -2 18 29 13
38 -6 49 7 13 17 -33 8 -68 7 -68 -2z"/>
<path d="M3334 1802 c13 -49 13 -49 -14 -66 -16 -9 -39 -16 -53 -16 -13 0 -30
-7 -37 -15 -7 -8 -28 -15 -47 -15 -24 0 -33 -4 -29 -12 3 -7 9 -21 12 -30 4
-10 14 -18 23 -19 9 0 41 -2 71 -4 30 -2 129 -9 219 -15 91 -6 170 -12 175
-13 7 -1 12 23 14 61 3 57 -4 73 -22 55 -11 -11 -50 -9 -59 2 -6 6 -10 6 -14
-2 -8 -20 -23 -15 -23 7 0 14 -7 20 -22 21 -13 0 -36 2 -53 3 -16 1 -50 3 -74
4 -34 2 -42 5 -37 17 3 8 0 15 -7 16 -7 0 -4 3 5 7 18 8 10 23 -24 50 -15 12
-16 10 -4 -36z m116 -76 c0 -3 -4 -8 -10 -11 -5 -3 -10 -1 -10 4 0 6 5 11 10
11 6 0 10 -2 10 -4z m-70 -16 c0 -5 -2 -10 -4 -10 -3 0 -8 5 -11 10 -3 6 -1
10 4 10 6 0 11 -4 11 -10z"/>
<path d="M3459 1824 c-12 -15 11 -24 62 -24 33 0 39 3 39 20 0 18 -5 20 -46
18 -25 -2 -50 -8 -55 -14z"/>
<path d="M3580 1820 c0 -16 7 -20 33 -20 26 0 33 4 33 20 0 16 -7 20 -33 20
-26 0 -33 -4 -33 -20z"/>
<path d="M4092 1805 c3 -14 -1 -30 -8 -36 -9 -7 -14 -32 -14 -68 1 -39 3 -51
10 -40 12 21 39 152 33 162 -10 17 -25 5 -21 -18z"/>
<path d="M3876 1738 c-3 -13 -7 -48 -8 -78 l-2 -55 -3 48 c-3 32 -8 47 -16 44
-13 -4 -30 -91 -23 -119 2 -10 0 -18 -5 -18 -5 0 -11 12 -15 28 -10 47 -11 48
-23 18 -7 -17 -9 -47 -5 -74 5 -35 4 -44 -7 -40 -8 2 -15 19 -17 37 -2 19 -8
31 -15 28 -8 -3 -11 -28 -10 -76 2 -63 0 -72 -15 -69 -13 3 -18 16 -20 66 -3
55 -5 62 -24 62 -19 0 -20 -4 -15 -59 5 -45 3 -62 -8 -71 -23 -19 -35 -2 -36
53 -1 78 -5 82 -79 85 -36 1 -74 4 -85 7 -20 4 -21 1 -15 -48 7 -69 3 -87 -22
-87 -16 0 -19 5 -16 25 3 14 1 28 -3 31 -5 3 -9 20 -9 39 0 19 -4 37 -10 40
-5 3 -10 0 -10 -8 0 -22 -44 -57 -71 -57 -14 0 -30 -5 -36 -11 -9 -9 -13 -2
-19 25 -7 40 -1 51 31 59 11 3 2 5 -19 6 l-39 1 6 -50 c7 -60 1 -80 -24 -80
-17 0 -19 8 -19 70 l0 70 -30 0 c-28 0 -29 -1 -33 -57 l-3 -58 -2 63 -2 63
-52 -3 -53 -3 -1 -45 c-3 -76 -4 -80 -18 -80 -19 0 -26 22 -26 81 0 29 -5 49
-11 49 -7 0 -9 -16 -4 -50 5 -40 4 -50 -7 -50 -13 0 -58 -40 -58 -51 0 -2 15
-4 33 -5 90 -2 306 -15 337 -20 39 -7 242 -22 389 -28 l94 -5 28 42 c15 23 37
52 48 64 41 43 113 173 104 186 -5 7 -10 28 -12 47 -4 43 -7 47 -15 18z m-824
-249 c1 -28 0 -53 -4 -56 -5 -2 -8 4 -8 14 0 10 -3 35 -6 56 -4 23 -3 37 4 37
5 0 12 -23 14 -51z m485 23 c-3 8 1 15 8 15 14 0 16 -18 3 -28 -4 -3 -3 -21 2
-39 14 -47 13 -73 -2 -68 -7 3 -17 25 -23 50 -5 24 -18 53 -27 62 -26 26 -22
29 13 10 26 -13 31 -13 26 -2z m-183 -44 c9 -37 7 -60 -6 -56 -18 6 -29 78
-13 78 7 0 15 -10 19 -22z"/>
<path d="M3179 1712 c-13 -15 -12 -16 3 -4 13 10 17 10 21 0 4 -9 6 -9 6 -1 2
20 -16 24 -30 5z"/>
<path d="M3690 1685 c0 -20 5 -25 23 -25 22 0 57 27 57 43 0 4 -18 7 -40 7
-36 0 -40 -2 -40 -25z"/>
<path d="M2846 1645 c-9 -26 -7 -32 5 -12 6 10 9 21 6 23 -2 3 -7 -2 -11 -11z"/>
<path d="M3867 1490 c-4 -25 -8 -56 -11 -70 -2 -14 -4 -5 -5 19 -1 37 -3 42
-16 31 -10 -8 -15 -31 -15 -66 0 -29 -4 -56 -10 -59 -6 -4 -10 7 -10 24 0 17
-4 31 -10 31 -6 0 -10 -28 -10 -65 0 -36 -4 -65 -10 -65 -12 0 -24 45 -17 64
4 10 1 13 -9 9 -13 -5 -15 -19 -11 -75 3 -59 2 -68 -12 -66 -12 2 -18 19 -22
61 -4 32 -9 60 -12 63 -15 16 -22 -11 -17 -65 4 -44 2 -62 -7 -65 -25 -10 -43
24 -43 83 l0 58 -35 -1 c-40 -1 -45 -12 -12 -27 20 -9 20 -9 -5 -4 -20 4 -26
2 -23 -8 3 -7 0 -30 -8 -51 -11 -33 -15 -36 -26 -22 -11 13 -11 17 3 22 9 3
16 13 16 21 0 13 -3 13 -25 -1 -13 -9 -31 -16 -38 -16 -8 0 -17 -9 -20 -20 -7
-28 -47 -27 -47 1 0 12 -8 28 -17 35 -20 15 -63 19 -63 5 0 -10 -30 -21 -83
-31 -47 -8 -59 9 -56 75 3 51 4 50 -34 59 -23 5 -29 2 -37 -16 l-9 -23 0 23
c-1 20 -6 22 -52 22 l-51 0 7 -65 c5 -54 4 -65 -8 -65 -20 0 -27 22 -27 80 0
33 -5 50 -15 53 -8 4 -17 1 -21 -5 -4 -6 -3 -8 3 -5 7 5 12 -10 15 -39 2 -35
0 -48 -12 -52 -22 -8 -50 -43 -49 -61 1 -14 2 -14 5 -1 4 14 19 14 127 4 67
-6 172 -15 232 -18 61 -4 148 -11 195 -16 141 -15 283 -16 288 -2 2 7 23 36
45 64 23 29 49 64 57 79 53 93 61 112 52 118 -6 3 -12 24 -14 46 l-4 40 -7
-45z m-807 -207 c0 -35 -3 -44 -10 -33 -13 20 -13 80 0 80 6 0 10 -21 10 -47z
m509 -55 c12 -16 11 -18 -7 -18 -15 0 -19 5 -15 20 3 12 6 19 7 18 1 -2 8 -11
15 -20z"/>
<path d="M2275 1470 c-3 -6 5 -10 19 -10 14 0 28 5 31 10 3 6 -5 10 -19 10
-14 0 -28 -4 -31 -10z"/>
<path d="M2173 1433 c9 -2 25 -2 35 0 9 3 1 5 -18 5 -19 0 -27 -2 -17 -5z"/>
<path d="M3216 1362 c-2 -4 2 -16 10 -27 13 -18 14 -18 14 8 0 25 -13 36 -24
19z"/>
<path d="M3377 1353 c-11 -10 -8 -28 8 -49 15 -18 15 -17 11 14 -5 37 -9 45
-19 35z"/>
<path d="M3328 1332 c-4 -12 -2 -20 3 -16 5 3 9 0 9 -7 0 -7 2 -10 5 -7 3 3 2
16 -3 28 l-9 24 -5 -22z"/>
<path d="M3428 1341 c7 -4 14 -22 14 -39 1 -39 20 -41 53 -7 34 33 31 41 -12
49 -54 8 -71 8 -55 -3z"/>
<path d="M2236 1311 c-3 -5 10 -11 29 -13 36 -4 47 5 19 16 -22 9 -42 7 -48
-3z"/>
<path d="M2605 1300 c-4 -6 -11 -8 -16 -5 -5 4 -9 1 -9 -4 0 -17 27 -13 34 4
6 17 0 20 -9 5z"/>
<path d="M3867 1303 c-4 -3 -7 -27 -7 -51 0 -57 13 -47 16 13 3 46 2 50 -9 38z"/>
<path d="M3832 1248 c-15 -18 -19 -91 -6 -95 7 -2 13 17 17 49 5 59 4 64 -11
46z"/>
<path d="M2166 1233 c-3 -10 -9 -24 -12 -30 -4 -10 11 -13 58 -13 60 0 66 2
86 30 l23 30 -75 0 c-61 0 -75 -3 -80 -17z"/>
<path d="M2415 1216 c-14 -21 -15 -37 -6 -120 6 -52 11 -128 11 -169 l0 -74
54 -2 c80 -3 85 10 87 198 0 98 4 151 11 151 6 0 8 -9 5 -20 -3 -11 -1 -20 4
-20 5 0 9 18 9 40 l0 40 -80 0 c-73 0 -81 -2 -95 -24z m115 -55 c0 -28 -2 -29
-53 -33 -50 -3 -52 -2 -52 22 0 23 5 26 50 31 28 3 51 6 53 7 1 1 2 -11 2 -27z"/>
<path d="M2152 1155 c0 -16 2 -22 5 -12 2 9 2 23 0 30 -3 6 -5 -1 -5 -18z"/>
<path d="M2252 1158 c2 -19 -2 -24 -27 -26 l-30 -3 7 -125 c4 -68 10 -129 13
-134 3 -6 25 -10 47 -10 l41 0 -8 78 c-8 73 -9 99 -13 200 -2 31 -6 42 -18 42
-10 0 -14 -7 -12 -22z m-22 -153 c0 -8 -2 -15 -4 -15 -2 0 -6 7 -10 15 -3 8
-1 15 4 15 6 0 10 -7 10 -15z"/>
<path d="M2968 1118 c-2 -49 0 -64 10 -61 14 6 16 90 3 112 -6 9 -10 -8 -13
-51z"/>
<path d="M3015 1148 c18 -87 18 -96 -1 -100 -10 -1 28 -3 84 -3 56 0 102 3
102 8 0 4 -21 7 -47 8 -27 1 -59 5 -73 10 -17 6 -3 8 48 5 l72 -3 0 44 c0 49
0 49 -82 56 -46 5 -56 3 -51 -9 3 -8 0 -14 -6 -14 -6 0 -11 7 -11 15 0 8 -9
15 -21 15 -18 0 -19 -4 -14 -32z"/>
<path d="M3780 1142 c0 -29 4 -39 16 -39 11 0 14 7 10 21 -3 12 -6 29 -6 39 0
9 -4 17 -10 17 -5 0 -10 -17 -10 -38z"/>
<path d="M2953 1125 c0 -22 2 -30 4 -17 2 12 2 30 0 40 -3 9 -5 -1 -4 -23z"/>
<path d="M3345 1140 c-3 -5 -28 -12 -55 -16 l-50 -7 1 -46 2 -46 87 0 c49 0
86 3 83 8 -2 4 -21 8 -41 8 -20 1 -50 5 -67 9 -22 7 -13 8 38 7 65 -2 67 -1
67 23 0 14 3 35 6 48 6 20 3 22 -29 22 -20 0 -39 -4 -42 -10z"/>
<path d="M3849 1123 c-13 -33 -20 -133 -9 -133 4 0 15 17 24 38 9 20 21 45 27
55 7 12 5 24 -7 42 -20 31 -22 31 -35 -2z"/>
<path d="M3456 1083 c4 -40 3 -63 -5 -67 -6 -4 -11 -12 -11 -18 0 -6 6 -6 15
2 16 13 120 15 159 4 11 -4 16 -2 12 4 -3 5 -38 13 -77 16 -90 9 -81 21 14 17
l72 -2 0 45 c1 43 -1 46 -25 46 -14 0 -55 3 -92 7 l-68 6 6 -60z"/>
<path d="M3668 1124 c-4 -3 -2 -20 3 -37 5 -18 9 -47 9 -65 0 -22 4 -32 12
-30 11 4 13 112 2 130 -6 9 -18 10 -26 2z"/>
<path d="M3740 1098 c0 -33 11 -69 19 -64 10 6 0 86 -10 86 -5 0 -9 -10 -9
-22z"/>
<path d="M4410 1094 c-6 -14 -10 -27 -10 -28 0 -2 33 -8 73 -15 39 -7 80 -15
90 -17 13 -4 17 1 17 25 0 24 -5 32 -22 35 -49 11 -129 26 -134 26 -2 0 -9
-12 -14 -26z"/>
<path d="M4610 1055 c0 -30 3 -33 36 -37 24 -3 38 0 41 9 3 8 17 20 32 28 23
12 23 14 6 15 -11 1 -41 5 -67 9 l-48 8 0 -32z"/>
<path d="M3180 1007 c0 -5 -25 -39 -55 -75 -131 -161 -155 -196 -155 -231 0
-15 -5 -32 -11 -38 -7 -7 -5 -12 6 -17 13 -5 16 -2 11 9 -3 9 -2 13 4 10 6 -4
7 -23 3 -47 -4 -30 -3 -39 6 -34 6 4 8 13 4 19 -4 7 0 6 10 -2 19 -15 14 -31
-9 -31 -21 0 -14 -40 9 -54 15 -9 23 -6 43 17 13 15 24 35 24 43 0 8 9 14 19
14 44 0 25 25 -33 45 -38 12 -60 25 -58 33 1 8 -2 11 -8 7 -5 -3 -10 -2 -10 3
0 10 47 22 87 22 22 0 25 4 21 25 -3 13 -2 22 3 20 12 -8 38 35 32 54 -4 12
-3 13 4 3 8 -10 17 -4 38 24 16 21 24 39 18 43 -16 10 44 131 65 131 16 1 16
1 0 10 -19 12 -68 9 -68 -3z"/>
<path d="M3285 1002 c4 -9 -2 -24 -18 -40 -13 -15 -30 -37 -36 -49 -11 -22
-10 -23 34 -23 l46 0 -16 30 c-12 24 -13 33 -3 50 10 16 10 22 -1 32 -11 11
-13 11 -6 0z"/>
<path d="M3408 993 c7 -3 16 -2 19 1 4 3 -2 6 -13 5 -11 0 -14 -3 -6 -6z"/>
<path d="M4400 980 c0 -5 5 -10 10 -10 17 0 11 -18 -7 -23 -17 -4 -17 -4 1
-12 23 -10 38 12 25 37 -10 19 -29 24 -29 8z"/>
<path d="M5180 970 c0 -11 4 -20 8 -20 4 0 8 9 9 20 1 11 -2 20 -8 20 -5 0 -9
-9 -9 -20z"/>
<path d="M4598 963 c0 -10 -1 -24 -1 -30 1 -20 -25 -15 -31 5 -3 10 -4 6 -3
-8 1 -18 9 -26 25 -28 20 -3 22 1 22 37 0 40 -9 58 -12 24z"/>
<path d="M4870 969 c0 -5 11 -9 25 -9 14 0 25 2 25 4 0 2 -11 6 -25 8 -14 3
-25 1 -25 -3z"/>
<path d="M5100 969 c-14 -4 -18 -8 -10 -8 8 -1 25 -4 38 -7 15 -5 22 -2 22 8
0 16 -12 18 -50 7z"/>
<path d="M3794 951 c4 -5 2 -21 -4 -35 -5 -14 -5 -28 -1 -30 5 -3 11 8 15 25
8 43 8 49 -5 49 -5 0 -8 -4 -5 -9z"/>
<path d="M4731 908 c-1 -37 -21 -46 -22 -11 -1 25 -2 24 -8 -7 l-6 -35 -103 3
c-57 2 -115 1 -130 -3 l-27 -8 30 -8 c42 -13 271 -59 290 -59 18 0 20 42 3 73
-6 12 -15 36 -19 52 -7 30 -7 30 -8 3z"/>
<path d="M3856 876 c-9 -14 -23 -37 -31 -51 -19 -30 -12 -45 19 -45 36 0 60
72 37 109 -7 11 -12 8 -25 -13z"/>
<path d="M3747 856 c3 -15 2 -17 -5 -8 -7 11 -11 10 -17 -5 -11 -27 -17 -83
-8 -83 18 1 40 27 47 55 12 52 11 58 -5 60 -12 2 -15 -3 -12 -19z"/>
<path d="M4954 862 c3 -6 1 -14 -5 -18 -6 -3 -15 0 -20 7 -7 11 -9 11 -9 -3 0
-21 13 -30 34 -22 19 7 21 30 4 40 -6 4 -8 3 -4 -4z"/>
<path d="M5123 859 c-6 -6 -9 -18 -6 -25 6 -17 39 -19 49 -3 4 8 -1 9 -16 4
-19 -6 -21 -4 -15 14 7 24 4 26 -12 10z"/>
<path d="M3902 840 c0 -14 2 -19 5 -12 2 6 2 18 0 25 -3 6 -5 1 -5 -13z"/>
<path d="M4401 816 c-9 -10 -9 -16 -1 -21 17 -10 37 12 24 25 -8 8 -15 6 -23
-4z m19 -6 c0 -5 -5 -10 -11 -10 -5 0 -7 5 -4 10 3 6 8 10 11 10 2 0 4 -4 4
-10z"/>
<path d="M4457 793 c-3 -16 -2 -31 1 -35 14 -13 297 -59 300 -48 2 6 10 17 18
24 17 18 18 24 2 23 -36 -4 -168 16 -168 25 0 6 -9 8 -20 5 -11 -3 -44 3 -72
14 -29 10 -53 19 -54 19 -1 0 -4 -12 -7 -27z"/>
<path d="M3693 795 c-3 -9 -3 -18 -1 -21 3 -3 8 4 11 16 6 23 -1 27 -10 5z"/>
<path d="M4790 785 c0 -8 4 -15 10 -15 5 0 7 7 4 15 -4 8 -8 15 -10 15 -2 0
-4 -7 -4 -15z"/>
<path d="M3560 767 c0 -15 78 -43 88 -32 11 11 -38 45 -64 45 -13 0 -24 -6
-24 -13z"/>
<path d="M3150 698 c0 -5 28 -7 63 -7 67 1 60 6 -15 11 -27 2 -48 0 -48 -4z"/>
<path d="M3963 693 c9 -2 23 -2 30 0 6 3 -1 5 -18 5 -16 0 -22 -2 -12 -5z"/>
<path d="M3588 683 c6 -2 18 -2 25 0 6 3 1 5 -13 5 -14 0 -19 -2 -12 -5z"/>
<path d="M4455 669 c-11 -17 1 -21 15 -4 8 9 8 15 2 15 -6 0 -14 -5 -17 -11z"/>
<path d="M4476 634 c-4 -10 -1 -14 6 -12 15 5 23 28 10 28 -5 0 -13 -7 -16
-16z"/>
<path d="M2936 624 c-3 -9 -6 -25 -6 -36 0 -20 1 -21 20 -3 23 21 27 55 6 55
-8 0 -17 -7 -20 -16z"/>
<path d="M3706 625 c-6 -16 -69 -45 -97 -45 -23 0 -27 -9 -19 -45 l7 -30 14
33 c15 35 43 48 83 38 17 -4 25 -1 30 12 3 9 8 22 11 28 3 6 -1 14 -9 17 -8 3
-17 -1 -20 -8z"/>
<path d="M4633 624 c-3 -8 -1 -20 6 -27 8 -8 11 -8 11 0 0 6 3 18 6 27 3 9 1
16 -5 16 -7 0 -14 -7 -18 -16z"/>
<path d="M4324 573 c-8 -42 -8 -63 0 -75 20 -32 26 -19 26 57 0 41 -4 75 -8
75 -4 0 -12 -26 -18 -57z"/>
<path d="M3140 610 c8 -5 22 -9 30 -9 10 0 8 3 -5 9 -27 12 -43 12 -25 0z"/>
<path d="M3253 593 c9 -2 25 -2 35 0 9 3 1 5 -18 5 -19 0 -27 -2 -17 -5z"/>
<path d="M3339 587 c5 -5 28 -7 52 -5 l44 3 -52 5 c-29 3 -48 1 -44 -3z"/>
<path d="M3076 563 c-6 -14 -5 -15 5 -6 7 7 10 15 7 18 -3 3 -9 -2 -12 -12z"/>
<path d="M3458 573 c6 -2 18 -2 25 0 6 3 1 5 -13 5 -14 0 -19 -2 -12 -5z"/>
<path d="M3637 563 c-9 -8 -9 -76 -1 -97 7 -19 49 -21 60 -4 4 6 10 29 14 50
6 32 4 40 -11 48 -20 11 -53 13 -62 3z m41 -45 c-7 -19 -38 -22 -38 -4 0 10 9
16 21 16 12 0 19 -5 17 -12z"/>
<path d="M3756 558 c-11 -37 -14 -60 -6 -52 11 12 24 64 16 64 -4 0 -8 -6 -10
-12z"/>
</g>
</svg>
