<?xml version="1.0" standalone="no"?>
<!DOCTYPE svg PUBLIC "-//W3C//DTD SVG 20010904//EN"
 "http://www.w3.org/TR/2001/REC-SVG-20010904/DTD/svg10.dtd">
<svg version="1.0" xmlns="http://www.w3.org/2000/svg"
 width="675.000000pt" height="450.000000pt" viewBox="0 0 675.000000 450.000000"
 preserveAspectRatio="xMidYMid meet">

<g transform="translate(0.000000,450.000000) scale(0.100000,-0.100000)"
fill="#000000" stroke="none">
<path d="M2496 3615 c-47 -17 -94 -59 -112 -102 -12 -27 -14 -204 -13 -1035 1
-552 4 -1159 8 -1349 l6 -346 25 -36 c39 -58 107 -87 202 -87 43 0 78 -4 78
-9 0 -5 27 -15 60 -24 l60 -15 2 317 3 316 73 3 c77 3 92 13 40 28 -24 7 -192
-3 -255 -16 -9 -1 -1 -130 8 -136 8 -4 10 -67 7 -208 l-5 -201 -86 0 c-77 0
-88 2 -113 25 -14 14 -32 39 -39 55 -10 23 -13 325 -16 1360 -4 1317 -4 1330
16 1357 44 60 26 59 694 56 l611 -3 37 -38 38 -37 3 -1090 2 -1090 25 0 25 0
0 1084 c0 742 -3 1094 -11 1113 -15 40 -57 82 -104 104 -38 17 -77 19 -635 18
-479 0 -602 -3 -634 -14z"/>
<path d="M1708 3557 c-57 -34 -71 -60 -74 -139 -4 -74 7 -108 32 -108 20 0 47
-67 40 -101 -5 -25 -1 -28 56 -49 55 -20 62 -21 76 -6 15 14 14 17 -3 30 -11
8 -17 17 -14 21 4 3 -8 21 -25 39 -43 46 -58 66 -50 66 3 0 2 6 -4 13 -17 21
-9 60 17 85 28 26 39 27 69 6 13 -9 31 -14 41 -11 22 5 54 -11 46 -24 -4 -5
-3 -14 0 -19 11 -18 46 62 40 91 -8 36 -58 93 -99 113 -48 23 -104 20 -148 -7z"/>
<path d="M2676 3418 c-4 -28 -9 -252 -7 -356 1 -54 38 -82 106 -82 31 0 66 5
78 12 12 7 32 11 44 9 17 -2 21 2 17 13 -3 9 -10 14 -14 11 -4 -3 -8 1 -7 8 0
6 -1 103 -1 215 l-2 202 -104 0 -104 0 -6 -32z"/>
<path d="M3126 3428 c-3 -13 -6 -100 -6 -193 0 -147 -3 -176 -19 -207 -10 -21
-16 -37 -12 -36 3 0 8 -1 11 -2 3 -1 42 -4 87 -6 146 -9 154 5 151 268 l-3
193 -101 3 c-98 3 -102 2 -108 -20z"/>
<path d="M3570 3260 c0 -204 5 -232 52 -264 26 -19 77 -21 112 -5 47 22 56 61
56 246 0 92 -3 178 -6 189 -5 20 -13 22 -110 23 l-104 2 0 -191z"/>
<path d="M1805 3400 c-3 -5 -16 -11 -28 -11 -17 -1 -18 -2 -4 -6 9 -2 17 -14
18 -26 0 -17 4 -14 15 13 12 31 14 32 10 8 -2 -16 1 -28 5 -28 5 0 9 5 9 11 0
5 5 7 10 4 13 -8 13 1 0 26 -12 21 -25 25 -35 9z"/>
<path d="M1867 3366 c3 -14 11 -27 18 -30 10 -3 10 2 2 25 -14 35 -26 38 -20
5z"/>
<path d="M1815 3330 c-16 -7 -17 -9 -3 -9 9 -1 20 4 23 9 7 11 7 11 -20 0z"/>
<path d="M1990 3150 c-6 -4 -15 -33 -21 -66 -5 -32 -12 -67 -15 -76 -5 -16 4
-18 85 -18 100 0 91 -8 111 92 6 32 9 62 5 68 -6 10 -148 10 -165 0z"/>
<path d="M1590 3053 c-1 -24 -20 -142 -26 -161 -7 -23 -6 -23 40 5 25 15 44
33 42 38 -2 6 -9 36 -16 68 -7 37 -16 57 -26 57 -8 0 -14 -3 -14 -7z"/>
<path d="M1819 2963 c-14 -15 -59 -100 -59 -110 0 -8 57 27 74 46 10 11 23 18
27 15 5 -3 9 2 9 10 0 9 -5 15 -12 14 -6 -2 -14 8 -17 20 -6 23 -7 23 -22 5z"/>
<path d="M2000 2948 c0 -5 30 -8 68 -7 52 0 62 2 44 10 -27 10 -112 8 -112 -3z"/>
<path d="M3265 2921 c-3 -6 -23 -11 -43 -12 -20 -1 -48 -4 -62 -8 l-25 -7 28
-26 27 -25 -41 -52 c-22 -28 -46 -51 -52 -51 -13 0 -132 119 -138 138 -3 8
-41 17 -103 24 l-99 12 -23 -28 c-13 -15 -24 -30 -24 -34 0 -4 34 -45 76 -91
42 -46 72 -87 67 -92 -4 -4 -55 -10 -113 -11 l-105 -3 -3 -28 c-3 -22 1 -30
17 -34 25 -6 23 0 61 -203 18 -91 35 -168 39 -173 4 -4 54 -16 111 -27 96 -18
120 -19 300 -9 256 14 311 20 321 39 4 8 22 93 40 189 27 145 35 174 50 178
13 4 19 14 19 33 0 26 -3 28 -62 34 -35 4 -75 10 -90 13 -21 4 -28 2 -28 -11
0 -9 -4 -16 -10 -16 -5 0 -7 7 -4 15 4 8 1 15 -5 15 -18 0 -13 13 17 45 79 86
106 127 95 143 -6 10 -16 16 -22 15 -6 -2 -8 4 -5 11 6 17 -11 23 -91 31 -33
3 -72 8 -87 11 -14 3 -29 0 -33 -5z m123 -87 c18 -3 32 -9 30 -14 -8 -21 -133
-159 -136 -150 -7 21 -32 10 -32 -15 0 -28 -10 -30 -60 -9 l-35 14 43 -5 c32
-4 42 -2 42 9 0 11 -14 16 -46 18 l-46 3 67 82 c74 89 60 84 173 67z m-435
-52 c31 -29 33 -38 13 -58 -8 -7 -17 -19 -19 -26 -4 -8 -26 9 -61 47 -31 33
-56 62 -56 65 0 3 21 4 48 2 34 -3 55 -11 75 -30z m125 -139 c3 -10 -25 -13
-116 -13 -138 0 -191 12 -97 21 99 10 208 6 213 -8z m82 -288 l0 -125 -25 0
-25 0 0 118 c0 65 3 122 7 125 3 4 15 7 25 7 16 0 18 -10 18 -125z m150 5 c0
-114 -1 -120 -20 -120 -16 0 -19 5 -14 24 3 13 1 27 -5 30 -7 4 -11 43 -11 97
0 88 0 89 25 89 l25 0 0 -120z m-250 100 c0 -5 -3 -10 -7 -10 -5 0 -7 -50 -5
-110 3 -94 1 -111 -13 -116 -9 -4 -20 -3 -25 2 -5 5 -12 62 -16 127 l-7 117
37 0 c20 0 36 -4 36 -10z m327 -107 c-2 -21 -4 -6 -4 32 0 39 2 55 4 38 2 -18
2 -50 0 -70z"/>
<path d="M1992 2905 c7 -7 128 -9 135 -1 3 3 -27 6 -67 6 -40 0 -71 -2 -68 -5z"/>
<path d="M1981 2866 c11 -10 129 -16 129 -6 0 6 -27 10 -67 10 -36 0 -64 -2
-62 -4z"/>
<path d="M1920 2819 c0 -26 14 -31 87 -30 46 0 71 5 82 15 8 9 13 17 10 20 -2
2 -43 6 -91 8 -79 4 -88 3 -88 -13z"/>
<path d="M1408 2819 c-25 -14 -24 -65 2 -79 16 -9 19 -8 13 6 -3 9 0 20 8 25
10 6 10 9 2 9 -7 0 -13 7 -13 15 0 11 11 15 39 15 22 0 43 5 46 10 8 13 -74
13 -97 -1z"/>
<path d="M1735 2804 c-11 -8 -28 -13 -37 -11 -9 3 -18 2 -20 -2 -7 -15 -128
-70 -142 -65 -9 3 -16 1 -16 -5 0 -6 4 -11 9 -11 5 0 14 -14 20 -31 6 -18 15
-28 21 -24 6 4 17 -1 24 -10 7 -10 32 -19 61 -22 l48 -6 -6 31 c-4 20 -1 34 8
42 8 7 15 21 15 31 0 11 5 19 12 19 6 0 9 3 5 6 -3 4 0 13 8 21 8 8 15 23 15
34 0 23 0 22 -25 3z"/>
<path d="M2101 2800 c-14 -12 -38 -20 -60 -20 l-36 0 -4 -73 c-5 -109 -5 -196
2 -260 l7 -58 -38 -16 c-56 -23 -181 -27 -334 -9 -75 9 -141 16 -145 16 -4 0
-9 -102 -11 -228 -2 -144 -10 -284 -22 -382 -10 -85 -23 -213 -29 -285 -6 -71
-19 -211 -28 -310 -9 -99 -18 -203 -20 -232 -4 -46 -2 -53 19 -67 40 -26 173
-41 241 -26 48 10 60 16 68 38 6 14 8 36 4 49 -3 12 4 195 15 405 11 211 20
451 20 533 0 90 4 144 9 135 18 -31 32 -287 36 -677 2 -222 6 -406 9 -411 3
-5 33 -17 66 -27 54 -16 72 -17 137 -8 107 16 107 15 94 167 -6 70 -11 218
-11 329 -1 235 -16 604 -26 632 -6 14 -4 17 9 12 9 -3 19 -2 22 2 8 14 -24
182 -45 227 -18 43 -17 88 3 81 6 -2 15 -18 20 -36 13 -52 20 -28 8 29 -16 75
-14 87 14 94 22 6 25 12 25 47 0 22 -6 47 -14 54 -11 12 -11 22 1 67 7 29 16
80 19 113 3 33 7 72 9 88 5 32 -2 33 -34 7z"/>
<path d="M2100 2145 c0 -5 5 -17 10 -25 5 -8 10 -10 10 -5 0 6 -5 17 -10 25
-5 8 -10 11 -10 5z"/>
<path d="M2110 2078 c0 -9 5 -20 10 -23 13 -8 13 5 0 25 -8 13 -10 13 -10 -2z"/>
<path d="M2723 1896 c-26 -22 -28 -30 -28 -95 0 -64 3 -73 28 -98 l27 -28 323
-3 c377 -4 420 -1 453 35 41 44 32 164 -15 200 -12 9 -111 12 -388 13 l-372 0
-28 -24z m286 -35 c7 -5 15 -31 17 -60 4 -58 -9 -71 -70 -71 l-36 0 0 70 0 70
38 0 c20 0 43 -4 51 -9z m113 -18 c1 -16 2 -37 2 -48 1 -11 8 -20 16 -20 11 0
16 14 18 48 3 39 6 47 23 47 16 0 19 -7 19 -50 0 -37 -5 -55 -20 -70 -44 -44
-100 -9 -100 63 0 24 3 47 7 50 15 16 33 5 35 -20z m175 5 l10 -23 12 23 c6
12 21 22 31 22 24 0 24 -3 3 -43 -9 -18 -19 -45 -23 -62 -7 -36 -40 -48 -40
-15 0 11 -11 43 -25 70 l-25 50 23 0 c15 0 28 -8 34 -22z"/>
<path d="M2968 1823 c7 -3 16 -2 19 1 4 3 -2 6 -13 5 -11 0 -14 -3 -6 -6z"/>
<path d="M2960 1780 c0 -5 7 -10 16 -10 8 0 12 5 9 10 -3 6 -10 10 -16 10 -5
0 -9 -4 -9 -10z"/>
<path d="M4373 1757 l-113 -10 0 -74 c0 -68 -2 -73 -21 -73 -20 0 -21 4 -15
53 10 81 5 89 -68 85 -33 -1 -67 1 -73 5 -8 5 -13 4 -13 -2 0 -6 -15 -11 -34
-11 -40 0 -34 17 -71 -215 -14 -88 -27 -170 -30 -182 l-5 -23 189 0 c166 0
191 -2 199 -16 6 -11 8 -1 5 32 -4 40 -1 54 17 77 36 46 99 33 119 -25 28 -81
-23 -148 -95 -124 -20 6 -21 4 -16 -41 2 -26 7 -50 9 -53 3 -3 58 -5 124 -5
82 0 119 4 119 11 0 7 -16 15 -36 18 -29 6 -33 10 -24 22 28 32 98 10 112 -35
3 -12 28 -14 128 -12 105 2 128 6 148 22 33 26 68 24 97 -6 41 -40 25 -112
-27 -122 -25 -5 -28 -10 -28 -44 0 -65 23 -46 82 69 54 104 57 107 92 110 20
2 36 1 36 -3 0 -5 -53 -100 -99 -177 -26 -44 -19 -50 15 -13 31 33 77 33 108
0 18 -19 33 -25 67 -25 70 0 79 -24 79 -204 l0 -146 39 0 39 0 -5 43 c-45 472
-44 469 -59 662 -4 50 -9 95 -12 100 -4 6 -7 15 -7 20 0 13 -7 15 -55 15 l-40
0 0 -65 c0 -50 -3 -65 -15 -65 -11 0 -15 16 -17 68 -2 37 -6 66 -10 65 -5 -2
-84 -3 -178 -3 l-170 0 0 -58 c0 -63 -4 -74 -26 -65 -11 4 -13 16 -8 48 7 51
-2 86 -20 79 -14 -5 -22 27 -47 204 -12 86 -14 89 -64 94 -33 3 -32 5 -34 -77
-1 -42 -5 -55 -16 -55 -12 0 -15 14 -15 70 l0 70 -72 -2 c-40 -1 -124 -6 -185
-11z m224 -329 c-3 -7 -24 -62 -48 -121 -31 -78 -46 -106 -57 -102 -7 3 -19 5
-27 5 -9 0 -1 31 25 105 21 57 41 109 45 115 9 15 68 13 62 -2z"/>
<path d="M4382 1364 c-12 -22 -3 -64 14 -64 9 0 14 12 14 34 0 39 -14 55 -28
30z"/>
<path d="M2966 1344 c-3 -8 -10 -13 -15 -9 -5 3 -13 0 -17 -6 -7 -12 12 -29
35 -29 8 0 11 6 7 16 -3 8 -2 12 4 9 6 -3 10 1 10 9 0 21 -17 29 -24 10z"/>
<path d="M3155 1312 c-2 -2 -1 -11 2 -19 5 -13 -4 -15 -60 -11 -48 3 -67 1
-67 -8 0 -7 6 -14 13 -17 25 -9 -2 -17 -75 -23 -42 -4 -82 -10 -89 -14 -9 -6
-12 -83 -13 -321 l-1 -314 55 -7 c30 -4 68 -12 84 -18 20 -7 52 -7 110 0 44 5
99 11 120 12 l39 3 0 245 c-1 135 -2 279 -2 321 l-1 75 -67 14 c-38 7 -61 15
-53 18 18 5 49 42 50 59 0 10 -35 14 -45 5z"/>
<path d="M3343 1270 c-100 -9 -105 -22 -13 -32 l25 -3 3 -319 c1 -176 4 -321
6 -323 2 -2 48 2 102 9 90 12 99 15 102 35 3 19 10 23 37 23 27 0 34 -4 38
-22 2 -13 5 96 6 242 0 146 -2 275 -5 287 -3 12 -14 25 -24 28 -13 4 -18 14
-17 32 2 26 1 26 -73 28 -41 0 -84 6 -95 11 -11 6 -51 7 -92 4z"/>
<path d="M4967 1144 c-4 -4 -7 -18 -7 -31 0 -28 23 -27 28 1 4 20 -11 40 -21
30z"/>
<path d="M3752 1110 c0 -14 2 -19 5 -12 2 6 2 18 0 25 -3 6 -5 1 -5 -13z"/>
<path d="M3782 1110 c0 -14 2 -19 5 -12 2 6 2 18 0 25 -3 6 -5 1 -5 -13z"/>
<path d="M3832 1110 c0 -14 2 -19 5 -12 2 6 2 18 0 25 -3 6 -5 1 -5 -13z"/>
<path d="M3720 1105 c0 -8 5 -15 10 -15 6 0 10 7 10 15 0 8 -4 15 -10 15 -5 0
-10 -7 -10 -15z"/>
<path d="M3800 1105 c0 -8 5 -15 10 -15 6 0 10 7 10 15 0 8 -4 15 -10 15 -5 0
-10 -7 -10 -15z"/>
<path d="M4348 823 c-2 -210 0 -283 10 -298 10 -16 12 36 12 278 0 176 -4 297
-9 297 -6 0 -11 -116 -13 -277z"/>
<path d="M3725 1050 c3 -5 35 -10 71 -10 36 0 64 4 64 10 0 6 -30 10 -71 10
-44 0 -68 -4 -64 -10z"/>
<path d="M3720 1010 c0 -6 30 -10 70 -10 40 0 70 4 70 10 0 6 -30 10 -70 10
-40 0 -70 -4 -70 -10z"/>
<path d="M4431 974 c0 -11 3 -14 6 -6 3 7 2 16 -1 19 -3 4 -6 -2 -5 -13z"/>
<path d="M4461 974 c0 -11 3 -14 6 -6 3 7 2 16 -1 19 -3 4 -6 -2 -5 -13z"/>
<path d="M4481 974 c0 -11 3 -14 6 -6 3 7 2 16 -1 19 -3 4 -6 -2 -5 -13z"/>
<path d="M4501 974 c0 -11 3 -14 6 -6 3 7 2 16 -1 19 -3 4 -6 -2 -5 -13z"/>
<path d="M4520 980 c0 -5 5 -10 10 -10 6 0 10 5 10 10 0 6 -4 10 -10 10 -5 0
-10 -4 -10 -10z"/>
<path d="M3725 960 c3 -5 33 -10 65 -10 32 0 62 5 65 10 4 6 -20 10 -65 10
-45 0 -69 -4 -65 -10z"/>
<path d="M4435 930 c3 -5 28 -10 55 -10 27 0 52 5 55 10 4 6 -17 10 -55 10
-38 0 -59 -4 -55 -10z"/>
<path d="M4458 893 c17 -2 47 -2 65 0 17 2 3 4 -33 4 -36 0 -50 -2 -32 -4z"/>
<path d="M4984 860 c1 -10 13 -15 36 -16 34 -2 34 -1 3 3 -17 2 -34 10 -36 16
-2 7 -3 5 -3 -3z"/>
<path d="M2041 861 c-9 -6 -10 -11 -2 -15 6 -4 9 -11 6 -16 -3 -4 4 -6 15 -3
12 3 20 12 18 21 -4 19 -19 24 -37 13z"/>
<path d="M4435 860 c-4 -6 17 -10 55 -10 38 0 59 4 55 10 -3 6 -28 10 -55 10
-27 0 -52 -4 -55 -10z"/>
<path d="M1872 800 c0 -14 2 -19 5 -12 2 6 2 18 0 25 -3 6 -5 1 -5 -13z"/>
<path d="M5018 813 c12 -2 30 -2 40 0 9 3 -1 5 -23 4 -22 0 -30 -2 -17 -4z"/>
<path d="M5000 790 c0 -5 16 -10 35 -10 19 0 35 5 35 10 0 6 -16 10 -35 10
-19 0 -35 -4 -35 -10z"/>
<path d="M4982 755 c0 -16 2 -22 5 -12 2 9 2 23 0 30 -3 6 -5 -1 -5 -18z"/>
<path d="M5018 763 c12 -2 30 -2 40 0 9 3 -1 5 -23 4 -22 0 -30 -2 -17 -4z"/>
<path d="M4146 735 c-9 -13 -16 -29 -16 -34 0 -19 25 -17 42 3 l18 21 -3 -25
c-2 -21 3 -26 26 -28 15 -2 27 0 27 5 0 4 3 19 7 32 5 20 3 23 -10 18 -11 -4
-22 1 -29 13 -17 27 -42 25 -62 -5z"/>
<path d="M4094 672 c-6 -4 -11 -14 -12 -22 0 -8 -4 -25 -7 -37 -5 -16 -1 -24
15 -33 30 -16 74 -9 78 13 3 13 -3 17 -27 17 -17 0 -31 5 -31 10 0 6 8 10 19
10 14 0 17 6 13 25 -4 25 -26 32 -48 17z"/>
<path d="M4790 660 c-15 -28 -2 -46 16 -23 13 18 15 16 18 -9 0 -7 11 -14 24
-16 28 -4 29 21 2 48 -25 25 -46 25 -60 0z"/>
<path d="M4234 655 c-4 -8 -1 -22 6 -30 8 -9 8 -15 2 -15 -6 0 -12 6 -15 13
-3 8 -12 5 -28 -10 l-23 -23 22 -22 c14 -14 25 -19 30 -13 6 9 27 21 76 43 5
3 5 -1 1 -8 -5 -8 -4 -11 3 -6 6 4 9 13 6 21 -4 8 -10 13 -15 10 -4 -3 -15 8
-24 25 -17 33 -32 38 -41 15z"/>
<path d="M5236 634 c-9 -22 -8 -26 5 -18 6 3 15 1 19 -6 4 -7 13 -9 20 -5 8 5
7 12 -6 26 -21 23 -30 24 -38 3z"/>
<path d="M4747 613 c-9 -2 -15 -9 -12 -14 3 -5 2 -17 -3 -26 -15 -30 -3 -43
40 -43 44 0 49 20 7 31 -18 5 -19 7 -5 8 12 1 16 6 12 17 -3 9 -6 20 -6 25 0
9 -4 10 -33 2z"/>
<path d="M4860 592 c0 -4 6 -14 13 -21 10 -11 8 -13 -10 -8 -32 7 -52 -19 -30
-41 11 -10 17 -12 17 -4 0 7 11 12 24 12 32 0 41 16 25 46 -12 23 -39 34 -39
16z"/>
<path d="M5197 578 c-4 -12 -5 -23 -3 -25 6 -6 105 -7 112 -1 9 9 -3 38 -15
38 -6 0 -8 -6 -6 -13 4 -8 -6 -12 -30 -13 -30 0 -34 2 -29 18 3 12 0 18 -9 18
-8 0 -17 -10 -20 -22z"/>
<path d="M4320 551 c0 -11 -8 -22 -17 -24 -14 -4 -12 -5 5 -6 17 -1 22 4 22
24 0 14 -2 25 -5 25 -3 0 -5 -9 -5 -19z"/>
</g>
</svg>
